<?xml version="1.0" encoding="UTF-8"?>
<svg version="1.1" viewBox="0 0 2000 2000" width="500" height="500" xmlns="http://www.w3.org/2000/svg">
<path transform="translate(0)" d="m0 0h2e3v2e3h-2e3z" fill="#FEFDFD"/>
<path transform="translate(978,502)" d="m0 0h311l25 1 29 3 26 4 29 6 34 10 27 10 24 11 23 12 19 12 17 13 13 11 8 7 11 11 9 11 12 16 12 20 13 27 10 30 6 25 4 26 2 22 1 19v11l-2 24-4 23-6 24-7 20-7 15-10 19-13 18-7 9h-668l-1-62v-350l1-56 8-1z" fill="#F4B9B7"/>
<path transform="translate(676,518)" d="m0 0h198v342h-132l-28-1-1-64v-123h-38l-26 1-34 4-31 6-23 6-21 7-26 12-18 11-19 14-12 11-8 7-12 14-10 14-9 15-8 16-6 14-8 24-6 26-3 18-2 22-1 35v22l-1 1h-160l-2-1v-78l3-32 6-36 6-25 9-30 9-24 13-28 12-22 13-19 10-13 9-10 7-8 22-22 11-9 13-10 21-14 20-12 27-13 36-14 28-9 37-9 36-7 40-5 36-3z" fill="#F4B9B7"/>
<path transform="translate(1350,1140)" d="m0 0h275l5 8 11 27 7 21 5 22 3 23 1 15v27l-3 29-5 27-6 23-7 20-9 20-12 22-14 20-11 13-15 16-10 9-14 11-14 10-21 13-16 8-19 9-27 10-24 8-28 7-26 5-40 5-41 2h-171l-1-26-1-168 1-1 165-1 28-2 31-5 24-7 21-9 16-9 11-9 10-10 9-14 7-14 5-17 2-13v-20l-3-19-6-18-8-15-10-12-11-9-15-10-17-8-18-7-24-5v-1z" fill="#F4B9B7"/>
<path transform="translate(267,1140)" d="m0 0h196l14 12 24 16 16 9 24 10 27 9 25 6 23 4 17 2 37 2h204l1 1v130l-1 22-1 2-8 1h-160l-46-2-33-3-37-5-33-6-38-9-27-8-21-7-24-10-27-13-24-14-16-11-16-12-11-9-13-12-16-16-9-11-10-13-7-10-13-20-13-24-4-8z" fill="#F4B9B7"/>
<path transform="translate(1121,693)" d="m0 0h167l23 2 25 5 24 8 19 9 15 10 13 11 10 11 9 15 6 15 4 16 2 14v24l-4 19-5 12-7 13-11 14-10 9-13 9-21 11-27 9-17 4-22 3-15 1h-165l-1-1v-242z" fill="#FEFDFD"/>
<path transform="translate(1047 1e3)" d="m0 0h57l7 3 6 7 4 9v9l-3 6-8 9 2 4 7 7 4 9v13l-7 10-7 5-10 2h-49l-2-1-1-70z" fill="#F4B9B7"/>
<path transform="translate(439,1012)" d="m0 0h10l10 3 9 6 7 8 4 9 1 5v12l-4 11-6 9-8 7-8 3-4 1h-13l-11-4-9-7-7-12-2-7v-14l3-10 6-8 9-8z" fill="#FEFDFD"/>
<path transform="translate(654 1e3)" d="m0 0h10l9 3 8 9 4 11 1 52 3 7 6 3h7l5-4 2-8v-70l1-1h12l1 24v41l-2 13-6 9-7 5-6 2h-10l-9-4-8-9-2-6-1-8-1-51-5-6h-11l-6 5-2 10v67l-1 1h-9l-3-1v-73l4-10 4-5 6-4z" fill="#F4B9B7"/>
<path transform="translate(537 1e3)" d="m0 0h11l8 3 8 9 3 8 1 41 1 13 3 7 4 3 8 1 5-3 3-9v-70l3-2 11 1v72l-3 9-8 9-9 4h-12l-8-4-8-9-2-7-1-52-3-9-4-3h-10l-5 4-2 5-1 73-1 1h-9l-3-1v-71l3-10 9-10z" fill="#F4B9B7"/>
<path transform="translate(1267,1014)" d="m0 0h21l11 2 9 6 6 7 4 9 1 6v11l-3 10-7 10-6 5-11 4-8 1h-17l-1-1v-69z" fill="#FEFDFD"/>
<path transform="translate(1372,1014)" d="m0 0h20l11 2 10 6 6 7 4 9 1 4v14l-3 8-6 10-7 6-8 3-14 2h-13l-2-2v-68z" fill="#FEFDFD"/>
<path transform="translate(436 1e3)" d="m0 0h17l12 4 10 6 9 10 5 10 3 9 1 5v8l-3 14-7 12-10 10-12 6-6 2-7 1h-11l-12-3-12-7-8-9-6-10-3-10v-20l3-10 5-9 8-9 10-6 9-3zm3 11-13 4-10 9-6 9-2 8v14l4 11 7 10 9 6 9 3h13l10-3 8-6 6-7 5-11 1-4v-12l-3-10-6-9-8-7-9-4-5-1z" fill="#F4B9B7"/>
<path transform="translate(1363 1e3)" d="m0 0h25l16 2 10 4 10 8 9 14 4 14v12l-3 11-7 12-10 9-12 6-13 2h-33l-1-1v-92zm9 12-1 1v68l2 2h13l14-2 10-4 8-9 5-10 1-4v-14l-4-11-6-8-9-6-5-2-8-1z" fill="#F4B9B7"/>
<path transform="translate(1254 1e3)" d="m0 0h26l19 2 10 4 10 9 5 6 5 10 2 7v21l-4 10-8 11-11 8-9 4-12 2h-33l-1-1v-92zm13 12-1 1v69l1 1h17l12-2 10-5 7-8 5-10 1-5v-11l-3-12-6-8-7-6-8-3-7-1z" fill="#F4B9B7"/>
<path transform="translate(1149 1e3)" d="m0 0h13l1 59 2 10 5 8 6 4 10 2 8-1 7-3 5-6 3-7 1-9 1-57h12v65l-3 10-7 9-10 7-10 3h-15l-10-4-9-7-6-8-3-10-1-36z" fill="#F4B9B7"/>
<path transform="translate(795 1e3)" d="m0 0 16 1v11l-42 1-5 5-1 2v10l4 7 4 2 7 1 29 1v11l-30 1-9 2-3 1-2 5v9l3 7 3 4 3 1 39 1 1 1v8l-7 2h-34l-7-3-6-4-6-8-3-10 1-10 4-6 5-5-1-4-3-3v-2h-2l-3-7v-12l4-8 4-5 9-5 4-1z" fill="#F4B9B7"/>
<path transform="translate(1462 1e3)" d="m0 0h12l1 27 2 13 5 9 7 4h17l8-3 4-5 3-6 1-6 1-33h12v35l-2 8-5 10-8 7-10 5-5 1v26h-12l-1-1v-22l-3-3-9-4-6-4-7-8-3-6-2-7-1-12v-24z" fill="#F4B9B7"/>
<path transform="translate(937 1e3)" d="m0 0h41v11l-27 2v55l1 10 2 3 12 2 2 2v6l-2 2h-8l-10-3-7-6-3-8-1-18-1-45-26-1-1-1v-9l1-1z" fill="#F4B9B7"/>
<path transform="translate(357 1e3)" d="m0 0h18v10l-1 1h-13l-15 4-10 9-5 9-2 12 2 13 5 10 9 8 10 4 4 1 16 1v9l-3 2h-15l-12-3-8-4-10-9-6-9-4-10-1-5v-12l3-13 6-10 8-9 11-6z" fill="#F4B9B7"/>
<path transform="translate(879 1e3)" d="m0 0h12v10l-20 2-11 4-8 8-5 9-2 9v8l3 10 5 9 8 7 13 5 16 1 1 1v8l-1 1h-21l-12-4-9-6-7-7-8-16-1-4v-16l3-11 7-12 7-7 12-6 9-2z" fill="#F4B9B7"/>
<path transform="translate(1060,1053)" d="m0 0h36l8 2 5 4 3 6-1 9-5 8-7 3h-39l-1-2v-29z" fill="#FEFDFD"/>
<path transform="translate(1060,1014)" d="m0 0h41l7 6 1 4v8l-3 6-5 4-3 1h-38l-1-1v-27z" fill="#FEFDFD"/>
</svg>
