<?xml version="1.0" encoding="UTF-8"?>
<svg version="1.1" viewBox="0 0 2000 2000" width="500" height="500" xmlns="http://www.w3.org/2000/svg">
<path transform="translate(0)" d="m0 0h2e3v2e3h-2e3z" fill="#F7BAB7"/>
<path transform="translate(935,504)" d="m0 0h363l38 3 29 4 29 6 26 7 27 9 26 11 19 9 24 14 16 11 16 13 11 9 17 17 8 10 9 12 9 14 9 16 9 19 8 22 6 23 5 28 3 29v46l-3 23-5 23-5 17-9 22-8 16-10 16-12 16-5 6-3 1h-664l-1-10v-428l1-30 2-2z" fill="#fff"/>
<path transform="translate(694,512)" d="m0 0h159l20 1 2 2 1 30v310h-163l-1-1v-188l-40 1-34 2-25 3-36 7-24 7-25 10-16 8-14 8-11 8-14 11-15 14-10 11-12 16-11 19-10 21-9 25-7 26-4 24-2 33v55l-3 1h-161l-1-1v-73l2-30 5-37 8-37 9-31 8-22 12-26 12-23 12-18 12-16 9-11 11-12 20-20 14-11 12-9 15-10 18-11 23-12 20-9 30-11 26-8 37-9 31-6 27-4 26-3 42-3z" fill="#fff"/>
<path transform="translate(1362,1144)" d="m0 0h264l4 5 9 20 9 27 6 29 3 30v33l-3 27-5 27-6 23-9 24-12 25-13 21-10 13-9 11-23 23-11 9-15 11-15 10-22 12-21 10-26 10-28 9-24 6-32 6-29 4-40 3-49 1h-133l-1-33v-162l2-1 165-1 30-2 30-5 24-7 21-9 17-10 11-9 9-10 9-14 7-16 5-19 1-7v-23l-4-20-6-16-7-13-8-10-11-11-14-9-19-10-21-7-9-2-1-2z" fill="#fff"/>
<path transform="translate(329,1144)" d="m0 0h141l8 4 16 11 25 14 25 10 18 6 27 7 29 5 21 2 42 2h193l1 1 1 13v116l-1 22-1 3-3 1-34 1h-110l-42-1-34-2-39-4-38-6-29-6-36-9-29-9-21-8-24-11-27-14-19-12-14-10-13-10-13-11-10-9-17-17-9-11-11-14-11-16-8-13-11-21v-3z" fill="#fff"/>
<path transform="translate(1122,695)" d="m0 0h173l18 2 27 6 20 7 21 10 13 9 10 9 10 10 10 15 7 16 6 23 2 15v15l-5 22-6 15-9 15-12 13-12 10-17 10-18 8-23 7-18 4-15 2-16 1h-161l-5-1-1-62v-180z" fill="#F7BAB7"/>
<path transform="translate(1047,1015)" d="m0 0h57l9 4 6 8 2 8v7l-3 9-4 5-4 4 11 11 2 4v15l-4 8-8 7-13 2-49 1-2-1z" fill="#fff"/>
<path transform="translate(654,1014)" d="m0 0h13l10 5 6 9 1 3 1 16 1 43 3 5 6 3 7-1 5-3 2-6v-72l1-1h13v58l-1 16-5 12-8 6-3 1h-16l-10-5-5-7-2-6-2-59-5-5-7-1-7 2-4 5-1 75-1 1h-11l-1-1v-59l1-17 4-8 8-7z" fill="#fff"/>
<path transform="translate(537,1014)" d="m0 0h13l10 5 6 9 2 9 1 52 2 5 4 3h10l5-2 2-9v-71h14v49l-1 24-3 10-6 7-7 3h-16l-10-5-4-5-3-9-1-51-2-9-5-4h-9l-5 3-3 4-1 75-1 1h-11l-1-1v-67l2-12 7-9 7-4z" fill="#fff"/>
<path transform="translate(1358,1015)" d="m0 0h38l12 3 10 5 9 8 6 10 3 11v18l-4 13-6 9-8 8-11 5-8 2-16 1h-23l-2-1zm13 11v71h20l13-2 10-7 6-8 4-11v-15l-4-12-9-10-10-5-5-1z" fill="#fff"/>
<path transform="translate(441,1013)" d="m0 0 16 1 12 5 9 7 7 8 5 10 2 8v16l-3 12-5 10-8 9-10 6-8 3-4 1h-19l-13-4-11-7-6-7-7-14-2-9v-11l3-15 5-9 9-10 10-6 10-3zm-4 11-11 4-9 7-6 9-3 9v15l3 9 7 11 11 8 11 3h9l10-3 8-5 7-8 5-10 1-5v-14l-4-12-7-9-9-6-9-3z" fill="#fff"/>
<path transform="translate(1253,1015)" d="m0 0h39l12 3 12 7 8 9 5 9 2 8v17l-2 10-6 12-9 9-11 5-16 3-17 1h-13l-4-1zm13 11v71h21l11-2 10-6 7-9 4-10v-16l-3-10-4-6-9-8-7-3-6-1z" fill="#fff"/>
<path transform="translate(1149,1015)" d="m0 0h13l1 1v51l1 14 3 8 7 6 8 3h9l8-3 6-4 4-8 1-17v-50l1-1h13v48l-2 21-4 10-6 7-12 6-4 1h-18l-11-4-8-6-4-5-4-9-1-5-1-21z" fill="#fff"/>
<path transform="translate(772,1015)" d="m0 0h39l1 1v8l-2 2-39 1-5 1-2 5-1 3v10l5 6 11 2 27 1 1 1v9l-1 1-33 1-5 2-4 5-1 2v11l4 7 5 2 38 1 2 2v7l-2 1h-38l-10-3-7-6-4-8-1-3v-12l4-8 6-7-7-8-3-7v-9l4-10 7-7 6-3z" fill="#fff"/>
<path transform="translate(1462,1015)" d="m0 0h12l1 32 2 10 4 6 12 6h13l7-3 6-7 2-6 1-7 1-30 1-1h11l1 2v18l-2 19-5 12-7 8-12 6-5 1v25l-4 2h-6l-2-1-2-26-13-5-10-9-5-11-1-4-1-17v-19z" fill="#fff"/>
<path transform="translate(917,1015)" d="m0 0h57l5 2v8l-2 1-27 1 1 44 1 22 14 5 3 3-1 5h-15l-10-5-4-6-2-19-1-39-1-11-26-1-1-1v-7l1-1z" fill="#fff"/>
<path transform="translate(358,1015)" d="m0 0h17l1 2v6l-2 3h-9l-13 2-11 6-7 8-4 9-1 13 2 10 6 10 9 8 13 4 15 1 2 2v6l-1 2h-21l-13-4-9-6-8-9-5-10-2-7v-20l4-11 6-9 7-7 11-6z" fill="#fff"/>
<path transform="translate(876,1015)" d="m0 0h15v10l-3 1-14 1-11 3-8 6-5 6-4 9-1 4v11l2 8 6 10 2 4 14 7 20 3 3 2v5l-3 2h-15l-16-4-10-6-9-10-5-12-1-4v-19l3-11 9-13 11-8 12-4z" fill="#fff"/>
<path transform="translate(1060,1065)" d="m0 0 42 1 8 7 2 10-3 8-6 5-4 1h-39l-1-1v-30z" fill="#F7BAB7"/>
<path transform="translate(1060,1026)" d="m0 0h41l4 2 3 6v11l-4 6-5 4h-39z" fill="#F7BAB7"/>
</svg>
